#N canvas 54 382 450 300 10;
#X text 101 62 1;
#X text 137 62 2;
#X text 171 62 3;
#X text 203 62 4;
#X text 237 62 5;
#X obj 97 82 tgl 15 0 color1 filtre1 empty 17 7 0 10 -262144 -1 -1
0 1;
#X obj 133 82 tgl 15 0 color2 empty empty 17 7 0 10 -262144 -1 -1 0
1;
#X obj 167 82 tgl 15 0 color3 empty empty 17 7 0 10 -262144 -1 -1 0
1;
#X obj 199 82 tgl 15 0 color4 filtre4 empty 17 7 0 10 -262144 -1 -1
0 1;
#X obj 233 82 tgl 15 0 color5 empty empty 17 7 0 10 -262144 -1 -1 0
1;
#X text 30 24 activar filtre a posició - kikube:;
