#N canvas 15 23 450 300 10;
#X obj 194 74 inlet;
#X obj 144 75 inlet;
#X obj 316 237 outlet;
#X obj 29 237 outlet;
#X obj 194 149 comport;
#X text 258 238 taula;
#X text 84 238 counter;
#X text 153 49 ID;
#X obj 320 200 print;
#X msg 194 121 print R;
#X msg 248 121 print G;
#X text 196 49 color message to send;
#X obj 194 97 sel 1 0 2;
#X msg 306 120 print B;
#X connect 0 0 12 0;
#X connect 1 0 4 0;
#X connect 4 0 2 0;
#X connect 4 0 3 0;
#X connect 4 0 8 0;
#X connect 9 0 4 0;
#X connect 10 0 4 0;
#X connect 12 0 9 0;
#X connect 12 1 10 0;
#X connect 12 2 13 0;
#X connect 13 0 4 0;
