#N canvas 15 23 450 300 10;
#X obj 191 74 inlet;
#X obj 238 73 inlet;
#X obj 283 74 inlet;
#X obj 144 75 inlet;
#X obj 316 237 outlet;
#X obj 29 237 outlet;
#X obj 194 149 comport;
#X text 258 238 taula;
#X text 84 238 counter;
#X text 196 47 R;
#X text 246 44 G;
#X text 292 45 B;
#X text 153 49 ID;
#X obj 320 200 print;
#X connect 0 0 6 0;
#X connect 1 0 6 0;
#X connect 2 0 6 0;
#X connect 3 0 6 0;
#X connect 6 0 4 0;
#X connect 6 0 5 0;
#X connect 6 0 13 0;
