#N canvas 570 140 450 300 10;
#X obj 104 81 delwrite~ delayname 500;
#X obj 105 167 delread~ delayname 150;
#X obj 203 127 *~ 0.6;
#X obj 105 255 dac~;
#X obj 49 21 inlet~;
#X obj 108 22 inlet;
#X obj 105 200 *~;
#X obj 254 22 inlet;
#X obj 212 55 hsl 128 15 1 0.1 0 0 empty empty empty -2 -8 0 10 -262144
-1 -1 100 1;
#X connect 1 0 2 0;
#X connect 1 0 6 0;
#X connect 2 0 0 0;
#X connect 4 0 0 0;
#X connect 5 0 6 1;
#X connect 6 0 3 0;
#X connect 6 0 3 1;
#X connect 7 0 8 0;
#X connect 8 0 2 1;
