#N canvas 209 247 1187 524 10;
#X obj 28 -87 inlet;
#X obj 38 -77 inlet;
#X obj 48 -67 inlet;
#X text 86 -77 x \, y \, z;
#X obj 169 -15 readsf~;
#X obj 152 170 dac~;
#X msg 166 -46 start;
#X obj 155 137 *~;
#X msg 335 -15 1;
#X msg 335 5 0;
#X msg 366 -15 1;
#X msg 366 5 0;
#X obj 357 -43 sel 0 1;
#X obj 357 -68 tgl 15 0 empty color5 empty 17 7 0 10 -262144 -1 -1
2 2;
#X text 283 48 filtre on/off;
#X obj 310 -116 inlet;
#X text 348 -116 loadbang;
#X obj 445 176 abs;
#X floatatom 445 132 5 0 0 0 - - -;
#X obj 498 176 abs;
#X floatatom 498 132 5 0 0 0 - - -;
#X obj 548 177 abs;
#X floatatom 548 133 5 0 0 0 - - -;
#X floatatom 378 247 5 0 0 0 - - -;
#X obj 378 223 expr if($f1 < 30 && $f2 < 30 && $f3 < 30 \, 1 \, 0)
;
#X text 417 247 si 1 \, guai! ho has aconseguit;
#X obj 378 270 sel 1 0;
#X floatatom 378 317 5 0 0 0 - - filtre5;
#X msg 378 293 0;
#X obj 445 156 -;
#X obj 498 156 -;
#X obj 548 157 -;
#X text 418 318 desactiva el filtre;
#X msg 912 40 0;
#X obj 634 -103 random 5;
#X msg 633 -127 bang;
#X obj 591 -64 sel 0;
#X obj 642 -65 sel 1;
#X obj 690 -64 sel 2;
#X obj 737 -62 sel 3;
#X obj 782 -62 sel 4;
#X obj 833 -62 sel 5;
#X obj 595 -35 bng 15 250 50 0 empty empty empty 17 7 0 10 -262144
-1 -1;
#X obj 642 -34 bng 15 250 50 0 empty empty empty 17 7 0 10 -262144
-1 -1;
#X obj 693 -33 bng 15 250 50 0 empty empty empty 17 7 0 10 -262144
-1 -1;
#X obj 741 -32 bng 15 250 50 0 empty empty empty 17 7 0 10 -262144
-1 -1;
#X obj 785 -32 bng 15 250 50 0 empty empty empty 17 7 0 10 -262144
-1 -1;
#X obj 840 -35 bng 15 250 50 0 empty empty empty 17 7 0 10 -262144
-1 -1;
#X msg 738 40 0;
#X msg 136 8 stop;
#X obj 133 -98 bng 15 250 50 0 empty opensongs empty 17 7 0 10 -262144
-1 -1;
#X obj 166 -97 bng 15 250 50 0 empty playsongs empty 17 7 0 10 -262144
-1 -1;
#X msg 133 -68 open marimba.wav;
#X msg 449 37 117;
#X msg 484 38 113;
#X msg 514 37 255;
#X msg 552 38 116;
#X msg 587 39 0;
#X msg 617 38 130;
#X msg 671 41 120;
#X msg 709 41 106;
#X msg 785 39 125;
#X msg 820 40 237;
#X msg 856 40 126;
#X msg 947 41 108;
#X msg 977 40 130;
#X msg 1036 39 242;
#X msg 1071 40 113;
#X msg 1102 40 129;
#N canvas 737 444 450 300 map5 0;
#N canvas 540 162 450 300 map 0;
#X obj 77 68 inlet;
#X obj 126 67 inlet;
#X obj 208 63 inlet;
#X obj 256 64 inlet;
#X obj 19 68 inlet;
#X obj 40 136 -;
#X obj 64 169 /;
#X obj 90 136 -;
#X obj 102 200 *;
#X obj 193 148 -;
#X obj 137 233 +;
#X obj 137 263 outlet;
#X text 23 45 x;
#X text 77 45 A;
#X text 123 44 B;
#X text 204 40 C;
#X text 260 38 D;
#X text 10 138 x-A;
#X text 119 137 B-A;
#X text 12 175 x-A/B-A;
#X text 229 148 D-C;
#X text 131 198 (x-A/B-A)*(D-C);
#X text 169 227 (x-A/B-A)*(D-C)+C;
#X connect 0 0 5 1;
#X connect 0 0 7 1;
#X connect 1 0 7 0;
#X connect 2 0 9 1;
#X connect 2 0 10 1;
#X connect 3 0 9 0;
#X connect 4 0 5 0;
#X connect 5 0 6 0;
#X connect 6 0 8 0;
#X connect 7 0 6 1;
#X connect 8 0 10 0;
#X connect 9 0 8 1;
#X connect 10 0 11 0;
#X restore -880 -329 pd map;
#X msg -889 -359 0;
#X msg -862 -359 255;
#X floatatom -880 -297 5 0 0 0 - - -;
#N canvas 540 162 450 300 map 0;
#X obj 77 68 inlet;
#X obj 126 67 inlet;
#X obj 208 63 inlet;
#X obj 256 64 inlet;
#X obj 19 68 inlet;
#X obj 40 136 -;
#X obj 64 169 /;
#X obj 90 136 -;
#X obj 102 200 *;
#X obj 193 148 -;
#X obj 137 233 +;
#X obj 137 263 outlet;
#X text 23 45 x;
#X text 77 45 A;
#X text 123 44 B;
#X text 204 40 C;
#X text 260 38 D;
#X text 10 138 x-A;
#X text 119 137 B-A;
#X text 12 175 x-A/B-A;
#X text 229 148 D-C;
#X text 131 198 (x-A/B-A)*(D-C);
#X text 169 227 (x-A/B-A)*(D-C)+C;
#X connect 0 0 5 1;
#X connect 0 0 7 1;
#X connect 1 0 7 0;
#X connect 2 0 9 1;
#X connect 2 0 10 1;
#X connect 3 0 9 0;
#X connect 4 0 5 0;
#X connect 5 0 6 0;
#X connect 6 0 8 0;
#X connect 7 0 6 1;
#X connect 8 0 10 0;
#X connect 9 0 8 1;
#X connect 10 0 11 0;
#X restore -999 -329 pd map;
#X msg -1008 -359 0;
#X msg -981 -359 255;
#X floatatom -999 -297 5 0 0 0 - - -;
#N canvas 540 162 450 300 map 0;
#X obj 77 68 inlet;
#X obj 126 67 inlet;
#X obj 208 63 inlet;
#X obj 256 64 inlet;
#X obj 19 68 inlet;
#X obj 40 136 -;
#X obj 64 169 /;
#X obj 90 136 -;
#X obj 102 200 *;
#X obj 193 148 -;
#X obj 137 233 +;
#X obj 137 263 outlet;
#X text 23 45 x;
#X text 77 45 A;
#X text 123 44 B;
#X text 204 40 C;
#X text 260 38 D;
#X text 10 138 x-A;
#X text 119 137 B-A;
#X text 12 175 x-A/B-A;
#X text 229 148 D-C;
#X text 131 198 (x-A/B-A)*(D-C);
#X text 169 227 (x-A/B-A)*(D-C)+C;
#X connect 0 0 5 1;
#X connect 0 0 7 1;
#X connect 1 0 7 0;
#X connect 2 0 9 1;
#X connect 2 0 10 1;
#X connect 3 0 9 0;
#X connect 4 0 5 0;
#X connect 5 0 6 0;
#X connect 6 0 8 0;
#X connect 7 0 6 1;
#X connect 8 0 10 0;
#X connect 9 0 8 1;
#X connect 10 0 11 0;
#X restore -763 -329 pd map;
#X msg -772 -359 0;
#X msg -745 -359 255;
#X floatatom -763 -297 5 0 0 0 - - -;
#X obj -974 -427 inlet;
#X obj -932 -427 inlet;
#X obj -891 -427 inlet;
#X obj -760 -416 inlet;
#X text -721 -415 loadbang;
#X obj -957 -245 outlet;
#X obj -913 -245 outlet;
#X obj -869 -245 outlet;
#X msg -953 -359 1;
#X msg -926 -359 30;
#X msg -834 -359 0;
#X msg -807 -359 127;
#X msg -717 -359 0;
#X msg -690 -359 127;
#X connect 0 0 3 0;
#X connect 1 0 0 1;
#X connect 2 0 0 2;
#X connect 3 0 18 0;
#X connect 4 0 7 0;
#X connect 5 0 4 1;
#X connect 6 0 4 2;
#X connect 7 0 17 0;
#X connect 8 0 11 0;
#X connect 9 0 8 1;
#X connect 10 0 8 2;
#X connect 11 0 19 0;
#X connect 12 0 4 0;
#X connect 13 0 0 0;
#X connect 14 0 8 0;
#X connect 15 0 5 0;
#X connect 15 0 6 0;
#X connect 15 0 20 0;
#X connect 15 0 21 0;
#X connect 15 0 1 0;
#X connect 15 0 2 0;
#X connect 15 0 22 0;
#X connect 15 0 23 0;
#X connect 15 0 9 0;
#X connect 15 0 10 0;
#X connect 15 0 24 0;
#X connect 15 0 25 0;
#X connect 20 0 4 3;
#X connect 21 0 4 4;
#X connect 22 0 0 3;
#X connect 23 0 0 4;
#X connect 24 0 8 3;
#X connect 25 0 8 4;
#X restore 300 233 pd map5;
#X obj 238 318 pitchshifter-marimba;
#X obj 92 -5 bng 15 250 50 0 empty stopsong empty 17 7 0 10 -262144
-1 -1;
#X connect 0 0 18 0;
#X connect 1 0 20 0;
#X connect 2 0 22 0;
#X connect 4 0 7 0;
#X connect 4 0 70 0;
#X connect 6 0 4 0;
#X connect 7 0 5 0;
#X connect 7 0 5 1;
#X connect 8 0 7 1;
#X connect 9 0 70 1;
#X connect 10 0 70 1;
#X connect 11 0 7 1;
#X connect 12 0 8 0;
#X connect 12 0 9 0;
#X connect 12 1 10 0;
#X connect 12 1 11 0;
#X connect 13 0 12 0;
#X connect 13 0 35 0;
#X connect 15 0 69 3;
#X connect 17 0 24 0;
#X connect 17 0 69 0;
#X connect 18 0 29 0;
#X connect 19 0 24 1;
#X connect 19 0 69 1;
#X connect 20 0 30 0;
#X connect 21 0 24 2;
#X connect 21 0 69 2;
#X connect 22 0 31 0;
#X connect 23 0 26 0;
#X connect 24 0 23 0;
#X connect 26 0 28 0;
#X connect 28 0 27 0;
#X connect 29 0 17 0;
#X connect 30 0 19 0;
#X connect 31 0 21 0;
#X connect 33 0 29 1;
#X connect 34 0 36 0;
#X connect 34 0 37 0;
#X connect 34 0 38 0;
#X connect 34 0 39 0;
#X connect 34 0 40 0;
#X connect 34 0 41 0;
#X connect 35 0 34 0;
#X connect 36 0 42 0;
#X connect 37 0 43 0;
#X connect 38 0 44 0;
#X connect 39 0 45 0;
#X connect 40 0 46 0;
#X connect 41 0 47 0;
#X connect 42 0 53 0;
#X connect 42 0 54 0;
#X connect 42 0 55 0;
#X connect 43 0 56 0;
#X connect 43 0 57 0;
#X connect 43 0 58 0;
#X connect 44 0 60 0;
#X connect 44 0 48 0;
#X connect 44 0 59 0;
#X connect 45 0 61 0;
#X connect 45 0 62 0;
#X connect 45 0 63 0;
#X connect 46 0 33 0;
#X connect 46 0 64 0;
#X connect 46 0 65 0;
#X connect 47 0 66 0;
#X connect 47 0 67 0;
#X connect 47 0 68 0;
#X connect 48 0 31 1;
#X connect 49 0 4 0;
#X connect 50 0 52 0;
#X connect 51 0 6 0;
#X connect 52 0 4 0;
#X connect 53 0 29 1;
#X connect 54 0 30 1;
#X connect 55 0 31 1;
#X connect 56 0 29 1;
#X connect 57 0 30 1;
#X connect 58 0 31 1;
#X connect 59 0 29 1;
#X connect 60 0 30 1;
#X connect 61 0 29 1;
#X connect 62 0 30 1;
#X connect 63 0 31 1;
#X connect 64 0 30 1;
#X connect 65 0 31 1;
#X connect 66 0 29 1;
#X connect 67 0 30 1;
#X connect 68 0 31 1;
#X connect 69 0 70 2;
#X connect 69 1 70 3;
#X connect 69 2 70 4;
#X connect 71 0 49 0;
