#N canvas 209 247 1132 507 10;
#X obj 23 -267 inlet;
#X obj 33 -257 inlet;
#X obj 43 -247 inlet;
#X text 81 -257 x \, y \, z;
#X obj 164 -195 readsf~;
#X obj 147 -10 dac~;
#X msg 161 -226 start;
#X obj 150 -43 *~;
#X msg 330 -195 1;
#X msg 330 -175 0;
#X msg 359 -195 1;
#X msg 359 -175 0;
#X obj 352 -223 sel 0 1;
#X obj 352 -248 tgl 15 0 empty color2 empty 17 7 0 10 -262144 -1 -1
2 2;
#X text 278 -132 filtre on/off;
#X obj 305 -296 inlet;
#X text 343 -296 loadbang;
#X obj 408 -37 abs;
#X floatatom 408 -81 5 0 0 0 - - -;
#X obj 461 -37 abs;
#X floatatom 461 -81 5 0 0 0 - - -;
#X obj 511 -36 abs;
#X floatatom 511 -80 5 0 0 0 - - -;
#X floatatom 371 62 5 0 0 0 - - -;
#X obj 371 38 expr if($f1 < 30 && $f2 < 30 && $f3 < 30 \, 1 \, 0);
#X text 410 62 si 1 \, guai! ho has aconseguit;
#X obj 371 85 sel 1 0;
#X floatatom 371 132 5 0 0 0 - - filtre2;
#X msg 371 108 0;
#X obj 408 -57 -;
#X obj 461 -57 -;
#X obj 511 -56 -;
#X text 411 133 desactiva el filtre;
#X obj 629 -283 random 5;
#X msg 628 -307 bang;
#X obj 586 -244 sel 0;
#X obj 637 -245 sel 1;
#X obj 685 -244 sel 2;
#X obj 732 -242 sel 3;
#X obj 777 -242 sel 4;
#X obj 828 -242 sel 5;
#X obj 590 -215 bng 15 250 50 0 empty empty empty 17 7 0 10 -262144
-1 -1;
#X obj 637 -214 bng 15 250 50 0 empty empty empty 17 7 0 10 -262144
-1 -1;
#X obj 688 -213 bng 15 250 50 0 empty empty empty 17 7 0 10 -262144
-1 -1;
#X obj 736 -212 bng 15 250 50 0 empty empty empty 17 7 0 10 -262144
-1 -1;
#X obj 780 -212 bng 15 250 50 0 empty empty empty 17 7 0 10 -262144
-1 -1;
#X obj 835 -215 bng 15 250 50 0 empty empty empty 17 7 0 10 -262144
-1 -1;
#X msg 113 -161 stop;
#X obj 128 -278 bng 15 250 50 0 empty opensongs empty 17 7 0 10 -262144
-1 -1;
#X obj 161 -277 bng 15 250 50 0 empty playsongs empty 17 7 0 10 -262144
-1 -1;
#X msg 128 -248 open flute.wav;
#N canvas 695 360 450 300 map2 1;
#N canvas 540 162 450 300 map 0;
#X obj 77 68 inlet;
#X obj 126 67 inlet;
#X obj 208 63 inlet;
#X obj 256 64 inlet;
#X obj 19 68 inlet;
#X obj 40 136 -;
#X obj 64 169 /;
#X obj 90 136 -;
#X obj 102 200 *;
#X obj 193 148 -;
#X obj 137 233 +;
#X obj 137 263 outlet;
#X text 23 45 x;
#X text 77 45 A;
#X text 123 44 B;
#X text 204 40 C;
#X text 260 38 D;
#X text 10 138 x-A;
#X text 119 137 B-A;
#X text 12 175 x-A/B-A;
#X text 229 148 D-C;
#X text 131 198 (x-A/B-A)*(D-C);
#X text 169 227 (x-A/B-A)*(D-C)+C;
#X connect 0 0 5 1;
#X connect 0 0 7 1;
#X connect 1 0 7 0;
#X connect 2 0 9 1;
#X connect 2 0 10 1;
#X connect 3 0 9 0;
#X connect 4 0 5 0;
#X connect 5 0 6 0;
#X connect 6 0 8 0;
#X connect 7 0 6 1;
#X connect 8 0 10 0;
#X connect 9 0 8 1;
#X connect 10 0 11 0;
#X restore -900 -349 pd map;
#X msg -909 -379 0;
#X msg -882 -379 255;
#X floatatom -900 -317 5 0 0 0 - - -;
#N canvas 540 162 450 300 map 0;
#X obj 77 68 inlet;
#X obj 126 67 inlet;
#X obj 208 63 inlet;
#X obj 256 64 inlet;
#X obj 19 68 inlet;
#X obj 40 136 -;
#X obj 64 169 /;
#X obj 90 136 -;
#X obj 102 200 *;
#X obj 193 148 -;
#X obj 137 233 +;
#X obj 137 263 outlet;
#X text 23 45 x;
#X text 77 45 A;
#X text 123 44 B;
#X text 204 40 C;
#X text 260 38 D;
#X text 10 138 x-A;
#X text 119 137 B-A;
#X text 12 175 x-A/B-A;
#X text 229 148 D-C;
#X text 131 198 (x-A/B-A)*(D-C);
#X text 169 227 (x-A/B-A)*(D-C)+C;
#X connect 0 0 5 1;
#X connect 0 0 7 1;
#X connect 1 0 7 0;
#X connect 2 0 9 1;
#X connect 2 0 10 1;
#X connect 3 0 9 0;
#X connect 4 0 5 0;
#X connect 5 0 6 0;
#X connect 6 0 8 0;
#X connect 7 0 6 1;
#X connect 8 0 10 0;
#X connect 9 0 8 1;
#X connect 10 0 11 0;
#X restore -1019 -349 pd map;
#X msg -1028 -379 0;
#X msg -1001 -379 255;
#X floatatom -1019 -317 5 0 0 0 - - -;
#N canvas 540 162 450 300 map 0;
#X obj 77 68 inlet;
#X obj 126 67 inlet;
#X obj 208 63 inlet;
#X obj 256 64 inlet;
#X obj 19 68 inlet;
#X obj 40 136 -;
#X obj 64 169 /;
#X obj 90 136 -;
#X obj 102 200 *;
#X obj 193 148 -;
#X obj 137 233 +;
#X obj 137 263 outlet;
#X text 23 45 x;
#X text 77 45 A;
#X text 123 44 B;
#X text 204 40 C;
#X text 260 38 D;
#X text 10 138 x-A;
#X text 119 137 B-A;
#X text 12 175 x-A/B-A;
#X text 229 148 D-C;
#X text 131 198 (x-A/B-A)*(D-C);
#X text 169 227 (x-A/B-A)*(D-C)+C;
#X connect 0 0 5 1;
#X connect 0 0 7 1;
#X connect 1 0 7 0;
#X connect 2 0 9 1;
#X connect 2 0 10 1;
#X connect 3 0 9 0;
#X connect 4 0 5 0;
#X connect 5 0 6 0;
#X connect 6 0 8 0;
#X connect 7 0 6 1;
#X connect 8 0 10 0;
#X connect 9 0 8 1;
#X connect 10 0 11 0;
#X restore -783 -349 pd map;
#X msg -792 -379 0;
#X msg -765 -379 255;
#X floatatom -783 -317 5 0 0 0 - - -;
#X obj -994 -447 inlet;
#X obj -952 -447 inlet;
#X obj -911 -447 inlet;
#X obj -780 -436 inlet;
#X text -741 -435 loadbang;
#X obj -977 -265 outlet;
#X obj -933 -265 outlet;
#X obj -889 -265 outlet;
#X msg -973 -379 1;
#X msg -854 -379 0;
#X msg -827 -379 127;
#X msg -737 -379 0;
#X msg -710 -379 127;
#X msg -946 -379 10;
#X connect 0 0 3 0;
#X connect 1 0 0 1;
#X connect 2 0 0 2;
#X connect 3 0 18 0;
#X connect 4 0 7 0;
#X connect 5 0 4 1;
#X connect 6 0 4 2;
#X connect 7 0 17 0;
#X connect 8 0 11 0;
#X connect 9 0 8 1;
#X connect 10 0 8 2;
#X connect 11 0 19 0;
#X connect 12 0 4 0;
#X connect 13 0 0 0;
#X connect 14 0 8 0;
#X connect 15 0 5 0;
#X connect 15 0 6 0;
#X connect 15 0 20 0;
#X connect 15 0 25 0;
#X connect 15 0 1 0;
#X connect 15 0 2 0;
#X connect 15 0 21 0;
#X connect 15 0 22 0;
#X connect 15 0 9 0;
#X connect 15 0 10 0;
#X connect 15 0 23 0;
#X connect 15 0 24 0;
#X connect 20 0 4 3;
#X connect 21 0 0 3;
#X connect 22 0 0 4;
#X connect 23 0 8 3;
#X connect 24 0 8 4;
#X connect 25 0 4 4;
#X restore 262 30 pd map2;
#X obj 206 114 pitchshifter;
#X floatatom 316 72 5 0 0 0 - - -;
#X floatatom 342 -52 5 0 0 0 - - -;
#X msg 444 -143 120;
#X msg 479 -142 117;
#X msg 509 -143 255;
#X msg 547 -142 115;
#X msg 582 -141 0;
#X msg 612 -142 130;
#X msg 704 -139 113;
#X msg 733 -140 0;
#X msg 851 -140 120;
#X msg 907 -140 0;
#X msg 942 -139 120;
#X msg 972 -140 127;
#X msg 1031 -141 245;
#X msg 1066 -140 113;
#X msg 1097 -140 131;
#X msg 666 -139 120;
#X msg 780 -141 120;
#X msg 815 -140 244;
#X obj 91 -174 bng 15 250 50 0 empty stopsong empty 17 7 0 10 -262144
-1 -1;
#X connect 0 0 18 0;
#X connect 1 0 20 0;
#X connect 2 0 22 0;
#X connect 4 0 7 0;
#X connect 4 0 52 0;
#X connect 6 0 4 0;
#X connect 7 0 5 0;
#X connect 7 0 5 1;
#X connect 8 0 7 1;
#X connect 9 0 52 1;
#X connect 10 0 52 1;
#X connect 11 0 7 1;
#X connect 12 0 8 0;
#X connect 12 0 9 0;
#X connect 12 1 10 0;
#X connect 12 1 11 0;
#X connect 13 0 12 0;
#X connect 13 0 34 0;
#X connect 15 0 51 3;
#X connect 17 0 24 0;
#X connect 17 0 51 0;
#X connect 17 0 54 0;
#X connect 18 0 29 0;
#X connect 19 0 24 1;
#X connect 19 0 51 1;
#X connect 20 0 30 0;
#X connect 21 0 24 2;
#X connect 21 0 51 2;
#X connect 22 0 31 0;
#X connect 23 0 26 0;
#X connect 24 0 23 0;
#X connect 26 0 28 0;
#X connect 28 0 27 0;
#X connect 29 0 17 0;
#X connect 30 0 19 0;
#X connect 31 0 21 0;
#X connect 33 0 35 0;
#X connect 33 0 36 0;
#X connect 33 0 37 0;
#X connect 33 0 38 0;
#X connect 33 0 39 0;
#X connect 33 0 40 0;
#X connect 34 0 33 0;
#X connect 35 0 41 0;
#X connect 36 0 42 0;
#X connect 37 0 43 0;
#X connect 38 0 44 0;
#X connect 39 0 45 0;
#X connect 40 0 46 0;
#X connect 41 0 55 0;
#X connect 41 0 56 0;
#X connect 41 0 57 0;
#X connect 42 0 58 0;
#X connect 42 0 59 0;
#X connect 42 0 60 0;
#X connect 43 0 61 0;
#X connect 43 0 62 0;
#X connect 43 0 70 0;
#X connect 44 0 71 0;
#X connect 44 0 72 0;
#X connect 44 0 63 0;
#X connect 45 0 64 0;
#X connect 45 0 65 0;
#X connect 45 0 66 0;
#X connect 46 0 67 0;
#X connect 46 0 68 0;
#X connect 46 0 69 0;
#X connect 47 0 4 0;
#X connect 48 0 50 0;
#X connect 49 0 6 0;
#X connect 50 0 4 0;
#X connect 51 0 52 2;
#X connect 51 0 53 0;
#X connect 51 1 52 3;
#X connect 51 2 52 4;
#X connect 55 0 29 1;
#X connect 56 0 30 1;
#X connect 57 0 31 1;
#X connect 58 0 29 1;
#X connect 59 0 30 1;
#X connect 60 0 31 1;
#X connect 61 0 30 1;
#X connect 62 0 31 1;
#X connect 63 0 31 1;
#X connect 64 0 29 1;
#X connect 65 0 30 1;
#X connect 66 0 31 1;
#X connect 67 0 29 1;
#X connect 68 0 30 1;
#X connect 69 0 31 1;
#X connect 70 0 29 1;
#X connect 71 0 29 1;
#X connect 72 0 30 1;
#X connect 73 0 47 0;
