#N canvas 167 263 1123 503 10;
#X obj 18 -97 inlet;
#X obj 28 -87 inlet;
#X obj 38 -77 inlet;
#X text 76 -87 x \, y \, z;
#X obj 159 -25 readsf~;
#X obj 142 160 dac~;
#X msg 156 -56 start;
#X obj 145 127 *~;
#X msg 302 -26 1;
#X msg 325 -5 0;
#X msg 414 -24 1;
#X msg 377 -5 0;
#X obj 347 -53 sel 0 1;
#X obj 347 -78 tgl 15 0 empty color4 empty 17 7 0 10 -262144 -1 -1
0 1;
#X text 273 38 filtre on/off;
#N canvas 349 146 450 300 map4 0;
#N canvas 540 162 450 300 map 0;
#X obj 77 68 inlet;
#X obj 126 67 inlet;
#X obj 208 63 inlet;
#X obj 256 64 inlet;
#X obj 19 68 inlet;
#X obj 40 136 -;
#X obj 64 169 /;
#X obj 90 136 -;
#X obj 102 200 *;
#X obj 193 148 -;
#X obj 137 233 +;
#X obj 137 263 outlet;
#X text 23 45 x;
#X text 77 45 A;
#X text 123 44 B;
#X text 204 40 C;
#X text 260 38 D;
#X text 10 138 x-A;
#X text 119 137 B-A;
#X text 12 175 x-A/B-A;
#X text 229 148 D-C;
#X text 131 198 (x-A/B-A)*(D-C);
#X text 169 227 (x-A/B-A)*(D-C)+C;
#X connect 0 0 5 1;
#X connect 0 0 7 1;
#X connect 1 0 7 0;
#X connect 2 0 9 1;
#X connect 2 0 10 1;
#X connect 3 0 9 0;
#X connect 4 0 5 0;
#X connect 5 0 6 0;
#X connect 6 0 8 0;
#X connect 7 0 6 1;
#X connect 8 0 10 0;
#X connect 9 0 8 1;
#X connect 10 0 11 0;
#X restore -947 -388 pd map;
#X msg -956 -418 0;
#X msg -929 -418 255;
#X floatatom -947 -356 5 0 0 0 - - -;
#N canvas 540 162 450 300 map 0;
#X obj 77 68 inlet;
#X obj 126 67 inlet;
#X obj 208 63 inlet;
#X obj 256 64 inlet;
#X obj 19 68 inlet;
#X obj 40 136 -;
#X obj 64 169 /;
#X obj 90 136 -;
#X obj 102 200 *;
#X obj 193 148 -;
#X obj 137 233 +;
#X obj 137 263 outlet;
#X text 23 45 x;
#X text 77 45 A;
#X text 123 44 B;
#X text 204 40 C;
#X text 260 38 D;
#X text 10 138 x-A;
#X text 119 137 B-A;
#X text 12 175 x-A/B-A;
#X text 229 148 D-C;
#X text 131 198 (x-A/B-A)*(D-C);
#X text 169 227 (x-A/B-A)*(D-C)+C;
#X connect 0 0 5 1;
#X connect 0 0 7 1;
#X connect 1 0 7 0;
#X connect 2 0 9 1;
#X connect 2 0 10 1;
#X connect 3 0 9 0;
#X connect 4 0 5 0;
#X connect 5 0 6 0;
#X connect 6 0 8 0;
#X connect 7 0 6 1;
#X connect 8 0 10 0;
#X connect 9 0 8 1;
#X connect 10 0 11 0;
#X restore -1066 -388 pd map;
#X msg -1075 -418 0;
#X msg -1048 -418 255;
#X msg -1020 -418 0;
#X floatatom -1066 -356 5 0 0 0 - - -;
#X msg -901 -418 0.5;
#X msg -874 -418 30;
#N canvas 540 162 450 300 map 0;
#X obj 77 68 inlet;
#X obj 126 67 inlet;
#X obj 208 63 inlet;
#X obj 256 64 inlet;
#X obj 19 68 inlet;
#X obj 40 136 -;
#X obj 64 169 /;
#X obj 90 136 -;
#X obj 102 200 *;
#X obj 193 148 -;
#X obj 137 233 +;
#X obj 137 263 outlet;
#X text 23 45 x;
#X text 77 45 A;
#X text 123 44 B;
#X text 204 40 C;
#X text 260 38 D;
#X text 10 138 x-A;
#X text 119 137 B-A;
#X text 12 175 x-A/B-A;
#X text 229 148 D-C;
#X text 131 198 (x-A/B-A)*(D-C);
#X text 169 227 (x-A/B-A)*(D-C)+C;
#X connect 0 0 5 1;
#X connect 0 0 7 1;
#X connect 1 0 7 0;
#X connect 2 0 9 1;
#X connect 2 0 10 1;
#X connect 3 0 9 0;
#X connect 4 0 5 0;
#X connect 5 0 6 0;
#X connect 6 0 8 0;
#X connect 7 0 6 1;
#X connect 8 0 10 0;
#X connect 9 0 8 1;
#X connect 10 0 11 0;
#X restore -830 -388 pd map;
#X msg -839 -418 0;
#X msg -812 -418 255;
#X floatatom -830 -356 5 0 0 0 - - -;
#X msg -784 -418 700;
#X msg -757 -418 6000;
#X obj -1041 -486 inlet;
#X obj -999 -486 inlet;
#X obj -958 -486 inlet;
#X obj -827 -475 inlet;
#X text -788 -474 loadbang;
#X obj -1024 -304 outlet;
#X obj -980 -304 outlet;
#X obj -936 -304 outlet;
#X msg -993 -418 127;
#X connect 0 0 3 0;
#X connect 1 0 0 1;
#X connect 2 0 0 2;
#X connect 3 0 23 0;
#X connect 4 0 8 0;
#X connect 5 0 4 1;
#X connect 6 0 4 2;
#X connect 7 0 4 3;
#X connect 8 0 22 0;
#X connect 9 0 0 3;
#X connect 10 0 0 4;
#X connect 11 0 14 0;
#X connect 12 0 11 1;
#X connect 13 0 11 2;
#X connect 14 0 24 0;
#X connect 15 0 11 3;
#X connect 16 0 11 4;
#X connect 17 0 4 0;
#X connect 18 0 0 0;
#X connect 19 0 11 0;
#X connect 20 0 5 0;
#X connect 20 0 6 0;
#X connect 20 0 7 0;
#X connect 20 0 25 0;
#X connect 20 0 1 0;
#X connect 20 0 2 0;
#X connect 20 0 9 0;
#X connect 20 0 10 0;
#X connect 20 0 12 0;
#X connect 20 0 13 0;
#X connect 20 0 15 0;
#X connect 20 0 16 0;
#X connect 25 0 4 4;
#X restore 253 186 pd map4;
#X obj 300 -126 inlet;
#X text 338 -126 loadbang;
#X obj 217 264 wahwah;
#X floatatom 43 110 5 0 0 0 - - -;
#X obj 403 133 abs;
#X floatatom 403 89 5 0 0 0 - - -;
#X obj 456 133 abs;
#X floatatom 456 89 5 0 0 0 - - -;
#X obj 506 134 abs;
#X floatatom 506 90 5 0 0 0 - - -;
#X floatatom 344 206 5 0 0 0 - - -;
#X obj 344 182 expr if($f1 < 30 && $f2 < 30 && $f3 < 30 \, 1 \, 0)
;
#X text 383 206 si 1 \, guai! ho has aconseguit;
#X obj 344 229 sel 1 0;
#X floatatom 344 276 5 0 0 0 - - filtre4;
#X msg 344 252 0;
#X obj 403 113 -;
#X obj 456 113 -;
#X obj 506 114 -;
#X text 384 277 desactiva el filtre;
#X text 546 28 comment;
#X text 757 31 comment;
#X msg 902 30 0;
#X obj 624 -113 random 5;
#X msg 623 -137 bang;
#X obj 581 -74 sel 0;
#X obj 632 -75 sel 1;
#X obj 680 -74 sel 2;
#X obj 727 -72 sel 3;
#X obj 772 -72 sel 4;
#X obj 823 -72 sel 5;
#X obj 585 -45 bng 15 250 50 0 empty empty empty 17 7 0 10 -262144
-1 -1;
#X obj 632 -44 bng 15 250 50 0 empty empty empty 17 7 0 10 -262144
-1 -1;
#X obj 683 -43 bng 15 250 50 0 empty empty empty 17 7 0 10 -262144
-1 -1;
#X obj 731 -42 bng 15 250 50 0 empty empty empty 17 7 0 10 -262144
-1 -1;
#X obj 775 -42 bng 15 250 50 0 empty empty empty 17 7 0 10 -262144
-1 -1;
#X obj 830 -45 bng 15 250 50 0 empty empty empty 17 7 0 10 -262144
-1 -1;
#X msg 439 27 110;
#X msg 474 28 106;
#X msg 504 27 250;
#X msg 577 29 0;
#X msg 607 28 126;
#X msg 542 28 108;
#X msg 699 31 120;
#X msg 728 30 0;
#X msg 775 29 120;
#X msg 810 30 239;
#X msg 937 31 117;
#X msg 967 30 127;
#X msg 1026 29 236;
#X msg 1061 30 117;
#X msg 1092 30 127;
#X msg 846 30 120;
#X msg 661 31 106;
#X msg 123 -78 open pat-ElectricGuitar.wav;
#X msg 126 -2 stop;
#X obj 123 -108 bng 15 250 50 0 empty opensongs empty 17 7 0 10 -262144
-1 -1;
#X obj 156 -107 bng 15 250 50 0 empty playsongs empty 17 7 0 10 -262144
-1 -1;
#X connect 0 0 21 0;
#X connect 1 0 23 0;
#X connect 2 0 25 0;
#X connect 4 0 7 0;
#X connect 4 0 18 0;
#X connect 6 0 4 0;
#X connect 7 0 5 0;
#X connect 7 0 5 1;
#X connect 8 0 7 1;
#X connect 9 0 18 1;
#X connect 10 0 18 1;
#X connect 11 0 7 1;
#X connect 12 0 8 0;
#X connect 12 0 9 0;
#X connect 12 1 10 0;
#X connect 12 1 11 0;
#X connect 13 0 12 0;
#X connect 13 0 40 0;
#X connect 15 0 18 2;
#X connect 15 0 19 0;
#X connect 15 1 18 3;
#X connect 15 2 18 4;
#X connect 16 0 15 3;
#X connect 20 0 27 0;
#X connect 20 0 15 0;
#X connect 21 0 32 0;
#X connect 22 0 27 1;
#X connect 22 0 15 1;
#X connect 23 0 33 0;
#X connect 24 0 27 2;
#X connect 24 0 15 2;
#X connect 25 0 34 0;
#X connect 26 0 29 0;
#X connect 27 0 26 0;
#X connect 29 0 31 0;
#X connect 31 0 30 0;
#X connect 32 0 20 0;
#X connect 33 0 22 0;
#X connect 34 0 24 0;
#X connect 38 0 32 1;
#X connect 39 0 41 0;
#X connect 39 0 42 0;
#X connect 39 0 43 0;
#X connect 39 0 44 0;
#X connect 39 0 45 0;
#X connect 39 0 46 0;
#X connect 40 0 39 0;
#X connect 41 0 47 0;
#X connect 42 0 48 0;
#X connect 43 0 49 0;
#X connect 44 0 50 0;
#X connect 45 0 51 0;
#X connect 46 0 52 0;
#X connect 47 0 53 0;
#X connect 47 0 54 0;
#X connect 47 0 55 0;
#X connect 48 0 58 0;
#X connect 48 0 56 0;
#X connect 48 0 57 0;
#X connect 49 0 59 0;
#X connect 49 0 60 0;
#X connect 49 0 69 0;
#X connect 50 0 61 0;
#X connect 50 0 62 0;
#X connect 50 0 68 0;
#X connect 51 0 38 0;
#X connect 51 0 63 0;
#X connect 51 0 64 0;
#X connect 52 0 65 0;
#X connect 52 0 66 0;
#X connect 52 0 67 0;
#X connect 53 0 32 1;
#X connect 53 0 18 5;
#X connect 54 0 33 1;
#X connect 55 0 34 1;
#X connect 56 0 33 1;
#X connect 57 0 34 1;
#X connect 58 0 32 1;
#X connect 59 0 33 1;
#X connect 60 0 34 1;
#X connect 61 0 32 1;
#X connect 62 0 33 1;
#X connect 63 0 33 1;
#X connect 64 0 34 1;
#X connect 65 0 32 1;
#X connect 66 0 33 1;
#X connect 67 0 34 1;
#X connect 68 0 34 1;
#X connect 69 0 32 1;
#X connect 70 0 4 0;
#X connect 71 0 4 0;
#X connect 72 0 70 0;
#X connect 73 0 6 0;
