#N canvas 101 260 697 411 10;
#X obj 18 -97 inlet;
#X obj 28 -87 inlet;
#X obj 38 -77 inlet;
#X text 76 -87 x \, y \, z;
#X obj 159 -25 readsf~;
#X obj 142 160 dac~;
#X msg 159 -57 open guitar.wav;
#X msg 129 -49 start;
#X obj 145 127 *~;
#X msg 276 -3 1;
#X msg 276 18 0;
#X msg 308 -3 1;
#X msg 308 18 0;
#X obj 298 -30 sel 0 1;
#X obj 298 -55 tgl 15 0 empty color4 empty 17 7 0 10 -262144 -1 -1
0 1;
#X text 320 -55 filtre on/off;
#N canvas 349 146 450 300 map4 0;
#N canvas 540 162 450 300 map 0;
#X obj 77 68 inlet;
#X obj 126 67 inlet;
#X obj 208 63 inlet;
#X obj 256 64 inlet;
#X obj 19 68 inlet;
#X obj 40 136 -;
#X obj 64 169 /;
#X obj 90 136 -;
#X obj 102 200 *;
#X obj 193 148 -;
#X obj 137 233 +;
#X obj 137 263 outlet;
#X text 23 45 x;
#X text 77 45 A;
#X text 123 44 B;
#X text 204 40 C;
#X text 260 38 D;
#X text 10 138 x-A;
#X text 119 137 B-A;
#X text 12 175 x-A/B-A;
#X text 229 148 D-C;
#X text 131 198 (x-A/B-A)*(D-C);
#X text 169 227 (x-A/B-A)*(D-C)+C;
#X connect 0 0 5 1;
#X connect 0 0 7 1;
#X connect 1 0 7 0;
#X connect 2 0 9 1;
#X connect 2 0 10 1;
#X connect 3 0 9 0;
#X connect 4 0 5 0;
#X connect 5 0 6 0;
#X connect 6 0 8 0;
#X connect 7 0 6 1;
#X connect 8 0 10 0;
#X connect 9 0 8 1;
#X connect 10 0 11 0;
#X restore -947 -388 pd map;
#X msg -956 -418 0;
#X msg -929 -418 255;
#X floatatom -947 -356 5 0 0 0 - - -;
#N canvas 540 162 450 300 map 0;
#X obj 77 68 inlet;
#X obj 126 67 inlet;
#X obj 208 63 inlet;
#X obj 256 64 inlet;
#X obj 19 68 inlet;
#X obj 40 136 -;
#X obj 64 169 /;
#X obj 90 136 -;
#X obj 102 200 *;
#X obj 193 148 -;
#X obj 137 233 +;
#X obj 137 263 outlet;
#X text 23 45 x;
#X text 77 45 A;
#X text 123 44 B;
#X text 204 40 C;
#X text 260 38 D;
#X text 10 138 x-A;
#X text 119 137 B-A;
#X text 12 175 x-A/B-A;
#X text 229 148 D-C;
#X text 131 198 (x-A/B-A)*(D-C);
#X text 169 227 (x-A/B-A)*(D-C)+C;
#X connect 0 0 5 1;
#X connect 0 0 7 1;
#X connect 1 0 7 0;
#X connect 2 0 9 1;
#X connect 2 0 10 1;
#X connect 3 0 9 0;
#X connect 4 0 5 0;
#X connect 5 0 6 0;
#X connect 6 0 8 0;
#X connect 7 0 6 1;
#X connect 8 0 10 0;
#X connect 9 0 8 1;
#X connect 10 0 11 0;
#X restore -1066 -388 pd map;
#X msg -1075 -418 0;
#X msg -1048 -418 255;
#X msg -1020 -418 0;
#X floatatom -1066 -356 5 0 0 0 - - -;
#X msg -993 -418 20;
#X msg -901 -418 0.5;
#X msg -874 -418 30;
#N canvas 540 162 450 300 map 0;
#X obj 77 68 inlet;
#X obj 126 67 inlet;
#X obj 208 63 inlet;
#X obj 256 64 inlet;
#X obj 19 68 inlet;
#X obj 40 136 -;
#X obj 64 169 /;
#X obj 90 136 -;
#X obj 102 200 *;
#X obj 193 148 -;
#X obj 137 233 +;
#X obj 137 263 outlet;
#X text 23 45 x;
#X text 77 45 A;
#X text 123 44 B;
#X text 204 40 C;
#X text 260 38 D;
#X text 10 138 x-A;
#X text 119 137 B-A;
#X text 12 175 x-A/B-A;
#X text 229 148 D-C;
#X text 131 198 (x-A/B-A)*(D-C);
#X text 169 227 (x-A/B-A)*(D-C)+C;
#X connect 0 0 5 1;
#X connect 0 0 7 1;
#X connect 1 0 7 0;
#X connect 2 0 9 1;
#X connect 2 0 10 1;
#X connect 3 0 9 0;
#X connect 4 0 5 0;
#X connect 5 0 6 0;
#X connect 6 0 8 0;
#X connect 7 0 6 1;
#X connect 8 0 10 0;
#X connect 9 0 8 1;
#X connect 10 0 11 0;
#X restore -830 -388 pd map;
#X msg -839 -418 0;
#X msg -812 -418 255;
#X floatatom -830 -356 5 0 0 0 - - -;
#X msg -784 -418 700;
#X msg -757 -418 6000;
#X obj -1041 -486 inlet;
#X obj -999 -486 inlet;
#X obj -958 -486 inlet;
#X obj -827 -475 inlet;
#X text -788 -474 loadbang;
#X obj -1024 -304 outlet;
#X obj -980 -304 outlet;
#X obj -936 -304 outlet;
#X connect 0 0 3 0;
#X connect 1 0 0 1;
#X connect 2 0 0 2;
#X connect 3 0 24 0;
#X connect 4 0 8 0;
#X connect 5 0 4 1;
#X connect 6 0 4 2;
#X connect 7 0 4 3;
#X connect 8 0 23 0;
#X connect 9 0 4 4;
#X connect 10 0 0 3;
#X connect 11 0 0 4;
#X connect 12 0 15 0;
#X connect 13 0 12 1;
#X connect 14 0 12 2;
#X connect 15 0 25 0;
#X connect 16 0 12 3;
#X connect 17 0 12 4;
#X connect 18 0 4 0;
#X connect 19 0 0 0;
#X connect 20 0 12 0;
#X connect 21 0 5 0;
#X connect 21 0 6 0;
#X connect 21 0 7 0;
#X connect 21 0 9 0;
#X connect 21 0 1 0;
#X connect 21 0 2 0;
#X connect 21 0 10 0;
#X connect 21 0 11 0;
#X connect 21 0 13 0;
#X connect 21 0 14 0;
#X connect 21 0 16 0;
#X connect 21 0 17 0;
#X restore 31 -17 pd map4;
#X obj 280 -95 inlet;
#X text 318 -95 loadbang;
#X obj 212 159 wahwah;
#X floatatom 43 110 5 0 0 0 - - -;
#X obj 450 40 abs;
#X floatatom 450 -4 5 0 0 0 - - -;
#X obj 503 40 abs;
#X floatatom 503 -4 5 0 0 0 - - -;
#X obj 553 41 abs;
#X floatatom 553 -3 5 0 0 0 - - -;
#X floatatom 391 113 5 0 0 0 - - -;
#X obj 391 89 expr if($f1 < 30 && $f2 < 30 && $f3 < 30 \, 1 \, 0);
#X text 430 113 si 1 \, guai! ho has aconseguit;
#X obj 391 136 sel 1 0;
#X floatatom 391 183 5 0 0 0 - - filtre4;
#X msg 391 159 0;
#X obj 450 20 -;
#X obj 503 20 -;
#X obj 553 21 -;
#X msg 514 -93 bang;
#X text 431 184 desactiva el filtre;
#X text 588 -65 posició correcte!;
#X msg 486 -66 130;
#X msg 521 -65 0;
#X msg 551 -66 115;
#X connect 0 0 16 0;
#X connect 0 0 22 0;
#X connect 1 0 16 1;
#X connect 1 0 24 0;
#X connect 2 0 16 2;
#X connect 2 0 26 0;
#X connect 4 0 8 0;
#X connect 4 0 19 0;
#X connect 6 0 4 0;
#X connect 7 0 4 0;
#X connect 8 0 5 0;
#X connect 8 0 5 1;
#X connect 9 0 8 1;
#X connect 10 0 19 1;
#X connect 11 0 19 1;
#X connect 12 0 8 1;
#X connect 13 0 9 0;
#X connect 13 0 10 0;
#X connect 13 1 11 0;
#X connect 13 1 12 0;
#X connect 14 0 13 0;
#X connect 16 0 19 2;
#X connect 16 0 20 0;
#X connect 16 1 19 3;
#X connect 16 2 19 4;
#X connect 17 0 16 3;
#X connect 21 0 28 0;
#X connect 22 0 33 0;
#X connect 23 0 28 1;
#X connect 24 0 34 0;
#X connect 25 0 28 2;
#X connect 26 0 35 0;
#X connect 27 0 30 0;
#X connect 28 0 27 0;
#X connect 30 0 32 0;
#X connect 32 0 31 0;
#X connect 33 0 21 0;
#X connect 34 0 23 0;
#X connect 35 0 25 0;
#X connect 36 0 39 0;
#X connect 36 0 40 0;
#X connect 36 0 41 0;
#X connect 39 0 33 1;
#X connect 39 0 19 5;
#X connect 40 0 34 1;
#X connect 41 0 35 1;
