#N canvas 831 69 608 493 10;
#X obj 314 37 loadbang;
#X text 94 30 1;
#X text 130 30 2;
#X text 164 30 3;
#X text 196 30 4;
#X text 230 30 5;
#X obj 90 50 tgl 15 0 empty empty empty 17 7 0 10 -262144 -1 -1 1 1
;
#X obj 126 50 tgl 15 0 empty empty empty 17 7 0 10 -262144 -1 -1 1
1;
#X obj 160 50 tgl 15 0 empty empty empty 17 7 0 10 -262144 -1 -1 1
1;
#X obj 192 50 tgl 15 0 empty empty empty 17 7 0 10 -262144 -1 -1 1
1;
#X obj 226 50 tgl 15 0 empty empty empty 17 7 0 10 -262144 -1 -1 1
1;
#X text 6 157 1;
#X text 42 157 2;
#X text 76 157 3;
#X text 108 157 4;
#X text 142 157 5;
#X obj 2 177 tgl 15 0 color1 filtre1 empty 17 7 0 10 -262144 -1 -1
0 1;
#X obj 38 177 tgl 15 0 color2 filtre2 empty 17 7 0 10 -262144 -1 -1
0 1;
#X obj 72 177 tgl 15 0 color3 filtre3 empty 17 7 0 10 -262144 -1 -1
0 1;
#X obj 104 177 tgl 15 0 color4 filtre4 empty 17 7 0 10 -262144 -1 -1
0 1;
#X obj 138 177 tgl 15 0 color5 filtre5 empty 17 7 0 10 -262144 -1 -1
0 1;
#X text -59 119 activar filtre a posició - kikube:;
#X text -55 222 obrir cançons;
#X obj 36 224 bng 15 250 50 0 opensongs empty empty 17 7 0 10 -262144
-1 -1;
#X obj 63 300 bng 15 250 50 0 playsongs empty empty 17 7 0 10 -262144
-1 -1;
#X obj 314 255 rebreBT;
#X msg 133 344 0;
#X floatatom 133 366 5 0 0 0 - - color1;
#X msg 143 354 0;
#X floatatom 143 376 5 0 0 0 - - color2;
#X msg 153 364 0;
#X floatatom 153 386 5 0 0 0 - - color3;
#X msg 163 374 0;
#X floatatom 163 396 5 0 0 0 - - color4;
#X msg 173 384 0;
#X floatatom 173 406 5 0 0 0 - - color5;
#X text 175 341 color inicial a 0 \, verd;
#X obj 10 428 bng 15 250 50 0 stopsong empty empty 17 7 0 10 -262144
-1 -1;
#X text -11 407 STOP cançó;
#X text -40 283 PLAY cançó ************** i començar joc!;
#X connect 0 0 25 0;
#X connect 6 0 25 1;
#X connect 7 0 25 2;
#X connect 8 0 25 3;
#X connect 9 0 25 4;
#X connect 10 0 25 5;
#X connect 24 0 26 0;
#X connect 24 0 28 0;
#X connect 24 0 30 0;
#X connect 24 0 32 0;
#X connect 24 0 34 0;
#X connect 26 0 27 0;
#X connect 28 0 29 0;
#X connect 30 0 31 0;
#X connect 32 0 33 0;
#X connect 34 0 35 0;
