#N canvas 167 190 450 300 10;
#X obj 314 37 loadbang;
#X obj 314 255 rebreBT;
#X text 94 30 1;
#X text 130 30 2;
#X text 164 30 3;
#X text 196 30 4;
#X text 230 30 5;
#X obj 90 50 tgl 15 0 empty empty empty 17 7 0 10 -262144 -1 -1 0 1
;
#X obj 126 50 tgl 15 0 empty empty empty 17 7 0 10 -262144 -1 -1 0
1;
#X obj 160 50 tgl 15 0 empty empty empty 17 7 0 10 -262144 -1 -1 0
1;
#X obj 192 50 tgl 15 0 empty empty empty 17 7 0 10 -262144 -1 -1 0
1;
#X obj 226 50 tgl 15 0 empty empty empty 17 7 0 10 -262144 -1 -1 0
1;
#X connect 0 0 1 0;
#X connect 7 0 1 1;
#X connect 8 0 1 2;
#X connect 9 0 1 3;
#X connect 10 0 1 4;
#X connect 11 0 1 5;
