#N canvas 509 32 941 731 10;
#X text 93 77 rebre dades 1er port;
#X text 69 -33 KIKUBE 1;
#X text 135 106 enviar x1 \, y1 \, z1;
#X msg 30 -8 print R;
#X msg 89 -7 print G;
#X msg 146 -8 print P;
#X floatatom 18 111 5 0 0 0 - - -;
#X floatatom 57 110 5 0 0 0 - - -;
#X floatatom 95 112 5 0 0 0 - - -;
#X text 108 263 rebre dades 1er port;
#X text 150 292 enviar x1 \, y1 \, z1;
#X msg 45 178 print R;
#X msg 104 179 print G;
#X msg 161 178 print P;
#X floatatom 33 297 5 0 0 0 - - -;
#X floatatom 72 296 5 0 0 0 - - -;
#X floatatom 110 298 5 0 0 0 - - -;
#X text 362 76 rebre dades 1er port;
#X text 404 105 enviar x1 \, y1 \, z1;
#X obj 301 31 bthDades;
#X msg 299 -9 print R;
#X msg 358 -8 print G;
#X msg 415 -9 print P;
#X floatatom 287 110 5 0 0 0 - - -;
#X floatatom 326 109 5 0 0 0 - - -;
#X floatatom 364 111 5 0 0 0 - - -;
#X text 84 153 KIKUBE 2;
#X text 338 -34 KIKUBE 3;
#X msg 248 -11 open 3;
#X text 369 262 rebre dades 1er port;
#X text 411 291 enviar x1 \, y1 \, z1;
#X msg 306 177 print R;
#X msg 365 178 print G;
#X msg 422 177 print P;
#X floatatom 294 296 5 0 0 0 - - -;
#X floatatom 333 295 5 0 0 0 - - -;
#X floatatom 371 297 5 0 0 0 - - -;
#X text 345 152 KIKUBE 4;
#X text 106 452 rebre dades 1er port;
#X text 148 481 enviar x1 \, y1 \, z1;
#X msg 43 367 print R;
#X msg 102 368 print G;
#X msg 159 367 print P;
#X floatatom 31 486 5 0 0 0 - - -;
#X floatatom 70 485 5 0 0 0 - - -;
#X floatatom 108 487 5 0 0 0 - - -;
#X text 82 342 KIKUBE 5;
#X msg -9 365 open 5;
#X msg 254 175 open 4;
#X msg -7 176 open 2;
#X msg 248 10 close 3;
#X msg -6 198 close 2;
#X msg -9 386 close 5;
#X msg 255 198 close 4;
#X obj 439 572 readsf~;
#X msg 387 539 start;
#X msg 353 539 stop;
#X msg -21 -10 open 0;
#X msg -20 12 close;
#N canvas 679 23 585 725 whawha 0;
#X obj 195 109 adc~;
#X obj 291 108 hsl 128 15 0 127 0 0 empty empty empty -2 -8 0 10 -262144
-1 -1 0 1;
#X obj 288 132 osc~ 2;
#X obj 288 160 +~ 1;
#X obj 288 189 *~ 0.5;
#X obj 288 228 *~ 1500;
#X obj 378 208 bang;
#X obj 381 244 -;
#X obj 418 209 hsl 128 15 0 127 0 0 empty empty empty -2 -8 0 10 -262144
-1 -1 0 1;
#X floatatom 406 261 5 0 0 0 - - -;
#X obj 289 258 +~ 200;
#X obj 31 389 vcf~;
#X obj 25 424 dac~;
#X floatatom 122 353 5 0 0 0 - - -;
#X obj 122 220 vsl 15 128 0 20 0 0 empty empty empty 0 -9 0 10 -262144
-1 -1 0 1;
#X obj 97 31 +~ 1;
#X obj 98 52 *~ 0.5;
#X obj 97 10 osc~ 2;
#X obj 199 87 hsl 128 15 700 6000 0 0 empty empty empty -2 -8 0 10
-262144 -1 -1 0 1;
#X obj 153 160 hsl 128 15 0 700 0 0 empty empty empty -2 -8 0 10 -262144
-1 -1 0 1;
#X floatatom 150 179 6 0 0 0 - - -;
#X floatatom 151 121 6 0 0 0 - - -;
#X obj 151 102 -;
#X obj 151 80 bang;
#X obj 51 186 +~ 200;
#X obj 50 104 *~ 1500;
#X text 148 27 <-- LFO (Low-Frequency Oscillator;
#X text 332 85 <-- Maximum of the freq. range;
#X text 286 157 <-- Minimum of the freq. range;
#X text 159 310 <-- "Q";
#X text 70 390 <-- Voltage-Controlled band-pass filter;
#X obj 102 -19 hsl 128 15 0.5 30 0 0 empty empty empty -2 -8 0 10 -262144
-1 -1 0 1;
#X obj 194 211 loadbang;
#X msg 192 236 5.3;
#X obj 14 -20 inlet~;
#X obj 79 225 inlet;
#X obj 238 -21 inlet;
#X obj 325 65 inlet;
#X connect 1 0 2 0;
#X connect 2 0 3 0;
#X connect 3 0 4 0;
#X connect 4 0 5 0;
#X connect 5 0 10 0;
#X connect 7 0 5 1;
#X connect 7 0 9 0;
#X connect 8 0 7 1;
#X connect 11 0 12 1;
#X connect 11 0 12 0;
#X connect 14 0 13 0;
#X connect 14 0 11 2;
#X connect 15 0 16 0;
#X connect 16 0 25 0;
#X connect 17 0 15 0;
#X connect 18 0 22 0;
#X connect 19 0 20 0;
#X connect 19 0 22 1;
#X connect 19 0 23 0;
#X connect 19 0 24 1;
#X connect 22 0 21 0;
#X connect 22 0 25 1;
#X connect 23 0 22 0;
#X connect 24 0 11 1;
#X connect 25 0 24 0;
#X connect 31 0 17 0;
#X connect 32 0 33 0;
#X connect 33 0 14 0;
#X connect 34 0 11 0;
#X connect 35 0 14 0;
#X connect 36 0 31 0;
#X connect 37 0 18 0;
#X restore 439 605 pd whawha;
#X msg 439 540 open guitar.wav;
#X msg 149 231 set valors2;
#X msg 403 44 set valors3;
#X msg 126 49 set valors1;
#X msg 147 420 set valors5;
#X msg 410 230 set valors4;
#X obj -1 256 print;
#X floatatom 82 554 5 0 0 0 - - -;
#X text 79 524 accX;
#X floatatom 84 626 5 0 0 0 - - -;
#N canvas 540 162 450 300 map 1;
#X obj 77 68 inlet;
#X obj 126 67 inlet;
#X obj 208 63 inlet;
#X obj 256 64 inlet;
#X obj 19 68 inlet;
#X obj 40 136 -;
#X obj 64 169 /;
#X obj 90 136 -;
#X obj 102 200 *;
#X obj 193 148 -;
#X obj 137 233 +;
#X obj 137 263 outlet;
#X text 23 45 x;
#X text 77 45 A;
#X text 123 44 B;
#X text 204 40 C;
#X text 260 38 D;
#X text 10 138 x-A;
#X text 119 137 B-A;
#X text 12 175 x-A/B-A;
#X text 229 148 D-C;
#X text 131 198 (x-A/B-A)*(D-C);
#X text 169 227 (x-A/B-A)*(D-C)+C;
#X connect 0 0 5 1;
#X connect 0 0 7 1;
#X connect 1 0 7 0;
#X connect 2 0 9 1;
#X connect 2 0 10 1;
#X connect 3 0 9 0;
#X connect 4 0 5 0;
#X connect 5 0 6 0;
#X connect 6 0 8 0;
#X connect 7 0 6 1;
#X connect 8 0 10 0;
#X connect 9 0 8 1;
#X connect 10 0 11 0;
#X restore 443 444 pd map;
#X obj 471 359 bng 15 250 50 0 empty empty empty 17 7 0 10 -262144
-1 -1;
#X msg 434 414 0;
#X msg 461 415 255;
#X floatatom 458 477 5 0 0 0 - - -;
#N canvas 540 162 450 300 map 0;
#X obj 77 68 inlet;
#X obj 126 67 inlet;
#X obj 208 63 inlet;
#X obj 256 64 inlet;
#X obj 19 68 inlet;
#X obj 40 136 -;
#X obj 64 169 /;
#X obj 90 136 -;
#X obj 102 200 *;
#X obj 193 148 -;
#X obj 137 233 +;
#X obj 137 263 outlet;
#X text 23 45 x;
#X text 77 45 A;
#X text 123 44 B;
#X text 204 40 C;
#X text 260 38 D;
#X text 10 138 x-A;
#X text 119 137 B-A;
#X text 12 175 x-A/B-A;
#X text 229 148 D-C;
#X text 131 198 (x-A/B-A)*(D-C);
#X text 169 227 (x-A/B-A)*(D-C)+C;
#X connect 0 0 5 1;
#X connect 0 0 7 1;
#X connect 1 0 7 0;
#X connect 2 0 9 1;
#X connect 2 0 10 1;
#X connect 3 0 9 0;
#X connect 4 0 5 0;
#X connect 5 0 6 0;
#X connect 6 0 8 0;
#X connect 7 0 6 1;
#X connect 8 0 10 0;
#X connect 9 0 8 1;
#X connect 10 0 11 0;
#X restore 324 439 pd map;
#X obj 352 354 bng 15 250 50 0 empty empty empty 17 7 0 10 -262144
-1 -1;
#X msg 315 409 0;
#X msg 342 410 255;
#X msg 370 411 0;
#X floatatom 321 471 5 0 0 0 - - -;
#X msg 397 412 20;
#X msg 489 416 0.5;
#X msg 516 417 30;
#N canvas 540 162 450 300 map 0;
#X obj 77 68 inlet;
#X obj 126 67 inlet;
#X obj 208 63 inlet;
#X obj 256 64 inlet;
#X obj 19 68 inlet;
#X obj 40 136 -;
#X obj 64 169 /;
#X obj 90 136 -;
#X obj 102 200 *;
#X obj 193 148 -;
#X obj 137 233 +;
#X obj 137 263 outlet;
#X text 23 45 x;
#X text 77 45 A;
#X text 123 44 B;
#X text 204 40 C;
#X text 260 38 D;
#X text 10 138 x-A;
#X text 119 137 B-A;
#X text 12 175 x-A/B-A;
#X text 229 148 D-C;
#X text 131 198 (x-A/B-A)*(D-C);
#X text 169 227 (x-A/B-A)*(D-C)+C;
#X connect 0 0 5 1;
#X connect 0 0 7 1;
#X connect 1 0 7 0;
#X connect 2 0 9 1;
#X connect 2 0 10 1;
#X connect 3 0 9 0;
#X connect 4 0 5 0;
#X connect 5 0 6 0;
#X connect 6 0 8 0;
#X connect 7 0 6 1;
#X connect 8 0 10 0;
#X connect 9 0 8 1;
#X connect 10 0 11 0;
#X restore 560 447 pd map;
#X obj 588 362 bng 15 250 50 0 empty empty empty 17 7 0 10 -262144
-1 -1;
#X msg 551 417 0;
#X msg 578 418 255;
#X floatatom 575 480 5 0 0 0 - - -;
#X msg 606 419 700;
#X msg 633 420 6000;
#X msg 202 557 0;
#X msg 321 558 10;
#X obj 82 589 expr if ( $f1 -$f2 < $f3 \, 1 \, ($f1-$f2));
#X obj 142 648 sel 1;
#X obj 252 638 * 1;
#X obj 207 611 bng 15 250 50 0 empty empty empty 17 7 0 10 -262144
-1 -1;
#X msg 298 633 0;
#X floatatom 217 667 5 0 0 0 - - -;
#X obj 32 32 bthDades;
#X obj 47 218 bthDades;
#X obj 308 217 bthDades;
#X obj 45 407 bthDades;
#X obj 33 78 accDades1;
#X obj 48 264 accDades2;
#X obj 302 77 accDades3;
#X obj 309 263 accDades4;
#X obj 46 453 accDades5;
#X connect 3 0 99 1;
#X connect 4 0 99 2;
#X connect 5 0 99 3;
#X connect 11 0 100 1;
#X connect 12 0 100 2;
#X connect 13 0 100 3;
#X connect 19 0 105 0;
#X connect 19 1 105 1;
#X connect 20 0 19 1;
#X connect 21 0 19 2;
#X connect 22 0 19 3;
#X connect 28 0 19 0;
#X connect 31 0 101 1;
#X connect 32 0 101 2;
#X connect 33 0 101 3;
#X connect 34 0 75 0;
#X connect 35 0 70 0;
#X connect 36 0 84 0;
#X connect 40 0 102 1;
#X connect 41 0 102 2;
#X connect 42 0 102 3;
#X connect 47 0 102 0;
#X connect 48 0 101 0;
#X connect 49 0 100 0;
#X connect 50 0 19 0;
#X connect 51 0 100 0;
#X connect 52 0 102 0;
#X connect 53 0 101 0;
#X connect 54 0 59 0;
#X connect 55 0 54 0;
#X connect 56 0 54 0;
#X connect 57 0 99 0;
#X connect 58 0 99 0;
#X connect 60 0 54 0;
#X connect 61 0 104 2;
#X connect 62 0 105 2;
#X connect 63 0 103 2;
#X connect 64 0 107 2;
#X connect 65 0 106 2;
#X connect 67 0 93 0;
#X connect 69 0 94 0;
#X connect 69 0 95 0;
#X connect 70 0 74 0;
#X connect 71 0 72 0;
#X connect 71 0 73 0;
#X connect 71 0 82 0;
#X connect 71 0 83 0;
#X connect 72 0 70 1;
#X connect 73 0 70 2;
#X connect 74 0 59 2;
#X connect 75 0 80 0;
#X connect 76 0 77 0;
#X connect 76 0 78 0;
#X connect 76 0 79 0;
#X connect 76 0 81 0;
#X connect 77 0 75 1;
#X connect 78 0 75 2;
#X connect 79 0 75 3;
#X connect 80 0 67 0;
#X connect 81 0 75 4;
#X connect 82 0 70 3;
#X connect 83 0 70 4;
#X connect 84 0 88 0;
#X connect 85 0 86 0;
#X connect 85 0 87 0;
#X connect 85 0 89 0;
#X connect 85 0 90 0;
#X connect 86 0 84 1;
#X connect 87 0 84 2;
#X connect 88 0 59 3;
#X connect 89 0 84 3;
#X connect 90 0 84 4;
#X connect 91 0 93 1;
#X connect 92 0 93 2;
#X connect 93 0 69 0;
#X connect 94 0 96 0;
#X connect 94 0 98 0;
#X connect 95 0 59 1;
#X connect 96 0 97 0;
#X connect 97 0 95 1;
#X connect 99 0 103 0;
#X connect 99 1 103 1;
#X connect 100 0 104 0;
#X connect 100 1 104 1;
#X connect 101 0 106 0;
#X connect 101 1 106 1;
#X connect 102 0 107 0;
#X connect 102 1 107 1;
#X connect 103 0 6 0;
#X connect 103 1 7 0;
#X connect 103 2 8 0;
#X connect 104 0 14 0;
#X connect 104 1 15 0;
#X connect 104 2 16 0;
#X connect 105 0 23 0;
#X connect 105 1 24 0;
#X connect 105 2 25 0;
#X connect 106 0 34 0;
#X connect 106 1 35 0;
#X connect 106 2 36 0;
#X connect 107 0 43 0;
#X connect 107 1 44 0;
#X connect 107 2 45 0;
