#N canvas 507 43 941 731 10;
#X text 93 77 rebre dades 1er port;
#X text 69 -33 KIKUBE 1;
#X text 135 106 enviar x1 \, y1 \, z1;
#X obj 32 32 bthDades;
#X obj 33 78 accDades;
#X msg 30 -8 print R;
#X msg 89 -7 print G;
#X msg 146 -8 print P;
#X floatatom 18 111 5 0 0 0 - - -;
#X floatatom 57 110 5 0 0 0 - - -;
#X floatatom 95 112 5 0 0 0 - - -;
#X text 108 263 rebre dades 1er port;
#X text 150 292 enviar x1 \, y1 \, z1;
#X obj 47 218 bthDades;
#X obj 48 264 accDades;
#X msg 45 178 print R;
#X msg 104 179 print G;
#X msg 161 178 print P;
#X floatatom 33 297 5 0 0 0 - - -;
#X floatatom 72 296 5 0 0 0 - - -;
#X floatatom 110 298 5 0 0 0 - - -;
#X msg 149 231 set array2;
#X msg 126 49 set array1;
#X text 362 76 rebre dades 1er port;
#X text 404 105 enviar x1 \, y1 \, z1;
#X obj 301 31 bthDades;
#X obj 302 77 accDades;
#X msg 299 -9 print R;
#X msg 358 -8 print G;
#X msg 415 -9 print P;
#X floatatom 287 110 5 0 0 0 - - -;
#X floatatom 326 109 5 0 0 0 - - -;
#X floatatom 364 111 5 0 0 0 - - -;
#X text 84 153 KIKUBE 2;
#X text 338 -34 KIKUBE 3;
#X msg 248 -11 open 3;
#X msg 403 44 set array3;
#X text 369 262 rebre dades 1er port;
#X text 411 291 enviar x1 \, y1 \, z1;
#X obj 308 217 bthDades;
#X obj 309 263 accDades;
#X msg 306 177 print R;
#X msg 365 178 print G;
#X msg 422 177 print P;
#X floatatom 294 296 5 0 0 0 - - -;
#X floatatom 333 295 5 0 0 0 - - -;
#X floatatom 371 297 5 0 0 0 - - -;
#X msg 410 230 set array4;
#X text 345 152 KIKUBE 4;
#X text 106 452 rebre dades 1er port;
#X text 148 481 enviar x1 \, y1 \, z1;
#X obj 45 407 bthDades;
#X obj 46 453 accDades;
#X msg 43 367 print R;
#X msg 102 368 print G;
#X msg 159 367 print P;
#X floatatom 31 486 5 0 0 0 - - -;
#X floatatom 70 485 5 0 0 0 - - -;
#X floatatom 108 487 5 0 0 0 - - -;
#X msg 147 420 set array5;
#X text 82 342 KIKUBE 5;
#X msg -9 365 open 5;
#X msg 254 175 open 4;
#X msg -7 176 open 2;
#X msg -21 -10 open 1;
#X msg -20 12 close 1;
#X msg 248 10 close 3;
#X msg -6 198 close 2;
#X msg -9 386 close 5;
#X msg 255 198 close 4;
#X obj 666 199 openpanel;
#X msg 665 234 open \$1;
#X obj 666 164 bng 15 250 50 0 empty empty empty 17 7 0 10 -262144
-1 -1;
#X obj 665 306 dac~;
#X obj 665 266 readsf~;
#X msg 613 233 start;
#X msg 579 233 stop;
#X obj 7 272 print;
#X connect 3 0 4 0;
#X connect 3 1 4 1;
#X connect 4 0 8 0;
#X connect 4 1 9 0;
#X connect 4 2 10 0;
#X connect 5 0 3 1;
#X connect 6 0 3 2;
#X connect 7 0 3 3;
#X connect 13 0 14 0;
#X connect 13 1 14 1;
#X connect 14 0 18 0;
#X connect 14 0 77 0;
#X connect 14 1 19 0;
#X connect 14 2 20 0;
#X connect 15 0 13 1;
#X connect 16 0 13 2;
#X connect 17 0 13 3;
#X connect 21 0 14 2;
#X connect 22 0 4 2;
#X connect 25 0 26 0;
#X connect 25 1 26 1;
#X connect 26 0 30 0;
#X connect 26 1 31 0;
#X connect 26 2 32 0;
#X connect 27 0 25 1;
#X connect 28 0 25 2;
#X connect 29 0 25 3;
#X connect 35 0 25 0;
#X connect 36 0 26 2;
#X connect 39 0 40 0;
#X connect 39 1 40 1;
#X connect 40 0 44 0;
#X connect 40 1 45 0;
#X connect 40 2 46 0;
#X connect 41 0 39 1;
#X connect 42 0 39 2;
#X connect 43 0 39 3;
#X connect 47 0 40 2;
#X connect 51 0 52 0;
#X connect 51 1 52 1;
#X connect 52 0 56 0;
#X connect 52 1 57 0;
#X connect 52 2 58 0;
#X connect 53 0 51 1;
#X connect 54 0 51 2;
#X connect 55 0 51 3;
#X connect 59 0 52 2;
#X connect 61 0 51 0;
#X connect 62 0 39 0;
#X connect 63 0 13 0;
#X connect 64 0 3 0;
#X connect 65 0 3 0;
#X connect 66 0 25 0;
#X connect 67 0 13 0;
#X connect 68 0 51 0;
#X connect 69 0 39 0;
#X connect 70 0 71 0;
#X connect 71 0 74 0;
#X connect 72 0 70 0;
#X connect 74 0 73 0;
#X connect 74 0 73 1;
#X connect 75 0 74 0;
#X connect 76 0 74 0;
