#N canvas 138 23 941 731 10;
#X text 93 77 rebre dades 1er port;
#X text 69 -33 KIKUBE 1;
#X text 135 106 enviar x1 \, y1 \, z1;
#X obj 32 32 bthDades;
#X obj 33 78 accDades;
#X msg 30 -8 print R;
#X msg 89 -7 print G;
#X msg 146 -8 print P;
#X floatatom 18 111 5 0 0 0 - - -;
#X floatatom 57 110 5 0 0 0 - - -;
#X floatatom 95 112 5 0 0 0 - - -;
#X text 108 263 rebre dades 1er port;
#X text 150 292 enviar x1 \, y1 \, z1;
#X obj 47 218 bthDades;
#X obj 48 264 accDades;
#X msg 45 178 print R;
#X msg 104 179 print G;
#X msg 161 178 print P;
#X floatatom 33 297 5 0 0 0 - - -;
#X floatatom 72 296 5 0 0 0 - - -;
#X floatatom 110 298 5 0 0 0 - - -;
#X text 362 76 rebre dades 1er port;
#X text 404 105 enviar x1 \, y1 \, z1;
#X obj 301 31 bthDades;
#X obj 302 77 accDades;
#X msg 299 -9 print R;
#X msg 358 -8 print G;
#X msg 415 -9 print P;
#X floatatom 287 110 5 0 0 0 - - -;
#X floatatom 326 109 5 0 0 0 - - -;
#X floatatom 364 111 5 0 0 0 - - -;
#X text 84 153 KIKUBE 2;
#X text 338 -34 KIKUBE 3;
#X msg 248 -11 open 3;
#X text 369 262 rebre dades 1er port;
#X text 411 291 enviar x1 \, y1 \, z1;
#X obj 308 217 bthDades;
#X obj 309 263 accDades;
#X msg 306 177 print R;
#X msg 365 178 print G;
#X msg 422 177 print P;
#X floatatom 294 296 5 0 0 0 - - -;
#X floatatom 333 295 5 0 0 0 - - -;
#X floatatom 371 297 5 0 0 0 - - -;
#X text 345 152 KIKUBE 4;
#X text 106 452 rebre dades 1er port;
#X text 148 481 enviar x1 \, y1 \, z1;
#X obj 45 407 bthDades;
#X obj 46 453 accDades;
#X msg 43 367 print R;
#X msg 102 368 print G;
#X msg 159 367 print P;
#X floatatom 31 486 5 0 0 0 - - -;
#X floatatom 70 485 5 0 0 0 - - -;
#X floatatom 108 487 5 0 0 0 - - -;
#X text 82 342 KIKUBE 5;
#X msg -9 365 open 5;
#X msg 254 175 open 4;
#X msg -7 176 open 2;
#X msg 248 10 close 3;
#X msg -6 198 close 2;
#X msg -9 386 close 5;
#X msg 255 198 close 4;
#X obj 814 142 openpanel;
#X obj 814 118 bng 15 250 50 0 empty empty empty 17 7 0 10 -262144
-1 -1;
#X obj 665 266 readsf~;
#X msg 613 233 start;
#X msg 579 233 stop;
#X msg -21 -10 open 0;
#X msg -20 12 close;
#N canvas 679 23 585 725 whawha 1;
#X obj 195 109 adc~;
#X obj 291 108 hsl 128 15 0 127 0 0 empty empty empty -2 -8 0 10 -262144
-1 -1 12700 1;
#X obj 288 132 osc~ 2;
#X obj 288 160 +~ 1;
#X obj 288 189 *~ 0.5;
#X obj 288 228 *~ 1500;
#X obj 378 208 bang;
#X obj 381 244 -;
#X obj 418 209 hsl 128 15 0 127 0 0 empty empty empty -2 -8 0 10 -262144
-1 -1 0 1;
#X floatatom 406 261 5 0 0 0 - - -;
#X obj 289 258 +~ 200;
#X obj 31 389 vcf~;
#X obj 25 424 dac~;
#X floatatom 122 353 5 0 0 0 - - -;
#X obj 122 220 vsl 15 128 0 20 0 0 empty empty empty 0 -9 0 10 -262144
-1 -1 2000 1;
#X obj 97 31 +~ 1;
#X obj 98 52 *~ 0.5;
#X obj 97 10 osc~ 2;
#X obj 199 87 hsl 128 15 700 6000 0 0 empty empty empty -2 -8 0 10
-262144 -1 -1 12700 1;
#X obj 153 160 hsl 128 15 0 700 0 0 empty empty empty -2 -8 0 10 -262144
-1 -1 1500 1;
#X floatatom 150 179 6 0 0 0 - - -;
#X floatatom 151 121 6 0 0 0 - - -;
#X obj 151 102 -;
#X obj 151 80 bang;
#X obj 51 186 +~ 200;
#X obj 50 104 *~ 1500;
#X text 148 27 <-- LFO (Low-Frequency Oscillator;
#X text 332 85 <-- Maximum of the freq. range;
#X text 286 157 <-- Minimum of the freq. range;
#X text 159 310 <-- "Q";
#X text 70 390 <-- Voltage-Controlled band-pass filter;
#X obj 102 -19 hsl 128 15 0.5 4 0 0 empty empty empty -2 -8 0 10 -262144
-1 -1 12700 1;
#X obj 194 211 loadbang;
#X msg 192 236 5.3;
#X obj 14 -20 inlet~;
#X connect 1 0 2 0;
#X connect 2 0 3 0;
#X connect 3 0 4 0;
#X connect 4 0 5 0;
#X connect 5 0 10 0;
#X connect 7 0 5 1;
#X connect 7 0 9 0;
#X connect 8 0 7 1;
#X connect 11 0 12 1;
#X connect 11 0 12 0;
#X connect 14 0 13 0;
#X connect 14 0 11 2;
#X connect 15 0 16 0;
#X connect 16 0 25 0;
#X connect 17 0 15 0;
#X connect 18 0 22 0;
#X connect 19 0 20 0;
#X connect 19 0 22 1;
#X connect 19 0 23 0;
#X connect 19 0 24 1;
#X connect 22 0 21 0;
#X connect 22 0 25 1;
#X connect 23 0 22 0;
#X connect 24 0 11 1;
#X connect 25 0 24 0;
#X connect 31 0 17 0;
#X connect 32 0 33 0;
#X connect 33 0 14 0;
#X connect 34 0 11 0;
#X restore 665 299 pd whawha;
#X msg 815 171 add2 \$1;
#X msg 665 234 open guitar.wav;
#X obj 932 156 loadbang;
#X msg 903 191 set;
#X msg 149 231 set valors2;
#X msg 403 44 set valors3;
#X msg 126 49 set valors1;
#X msg 796 215;
#X msg 147 420 set valors5;
#X msg 410 230 set valors4;
#X obj -1 256 print;
#X floatatom 403 568 5 0 0 0 - - -;
#X floatatom 515 566 5 0 0 0 - - -;
#X floatatom 646 569 5 0 0 0 - - -;
#X text 400 538 accX;
#X text 513 535 v0X;
#X floatatom 404 640 5 0 0 0 - - -;
#X text 635 537 threshold;
#X msg 365 541 200;
#X msg 599 531 100;
#X obj 403 603 expr if ( $f1 -$f2 < $f3 \, $f2 \, ($f1-$f2));
#X msg 476 537 120;
#X obj 541 514 bng 15 250 50 0 empty empty empty 17 7 0 10 -262144
-1 -1;
#X connect 3 0 4 0;
#X connect 3 1 4 1;
#X connect 4 0 8 0;
#X connect 4 1 9 0;
#X connect 4 2 10 0;
#X connect 5 0 3 1;
#X connect 6 0 3 2;
#X connect 7 0 3 3;
#X connect 13 0 14 0;
#X connect 13 0 81 0;
#X connect 13 1 14 1;
#X connect 14 0 18 0;
#X connect 14 1 19 0;
#X connect 14 2 20 0;
#X connect 15 0 13 1;
#X connect 16 0 13 2;
#X connect 17 0 13 3;
#X connect 23 0 24 0;
#X connect 23 1 24 1;
#X connect 24 0 28 0;
#X connect 24 1 29 0;
#X connect 24 2 30 0;
#X connect 25 0 23 1;
#X connect 26 0 23 2;
#X connect 27 0 23 3;
#X connect 33 0 23 0;
#X connect 36 0 37 0;
#X connect 36 1 37 1;
#X connect 37 0 41 0;
#X connect 37 1 42 0;
#X connect 37 2 43 0;
#X connect 38 0 36 1;
#X connect 39 0 36 2;
#X connect 40 0 36 3;
#X connect 47 0 48 0;
#X connect 47 1 48 1;
#X connect 48 0 52 0;
#X connect 48 1 53 0;
#X connect 48 2 54 0;
#X connect 49 0 47 1;
#X connect 50 0 47 2;
#X connect 51 0 47 3;
#X connect 56 0 47 0;
#X connect 57 0 36 0;
#X connect 58 0 13 0;
#X connect 59 0 23 0;
#X connect 60 0 13 0;
#X connect 61 0 47 0;
#X connect 62 0 36 0;
#X connect 63 0 71 0;
#X connect 64 0 63 0;
#X connect 65 0 70 0;
#X connect 66 0 65 0;
#X connect 67 0 65 0;
#X connect 68 0 3 0;
#X connect 69 0 3 0;
#X connect 71 0 78 0;
#X connect 72 0 65 0;
#X connect 73 0 74 0;
#X connect 74 0 78 0;
#X connect 75 0 14 2;
#X connect 76 0 24 2;
#X connect 77 0 4 2;
#X connect 79 0 48 2;
#X connect 80 0 37 2;
#X connect 82 0 91 0;
#X connect 83 0 91 1;
#X connect 84 0 91 2;
#X connect 89 0 82 0;
#X connect 90 0 84 0;
#X connect 91 0 87 0;
#X connect 92 0 83 0;
#X connect 93 0 83 0;
