#N canvas 390 28 941 731 10;
#X text 93 77 rebre dades 1er port;
#X text 69 -33 KIKUBE 1;
#X text 135 106 enviar x1 \, y1 \, z1;
#X floatatom 18 111 5 0 0 0 - - -;
#X floatatom 57 110 5 0 0 0 - - -;
#X floatatom 95 112 5 0 0 0 - - -;
#X floatatom 290 113 5 0 0 0 - - -;
#X floatatom 329 112 5 0 0 0 - - -;
#X floatatom 367 114 5 0 0 0 - - -;
#X floatatom 25 348 5 0 0 0 - - -;
#X floatatom 64 347 5 0 0 0 - - -;
#X floatatom 102 349 5 0 0 0 - - -;
#X text 341 -31 KIKUBE 2;
#X text 76 204 KIKUBE 3;
#X msg -14 227 open 3;
#X floatatom 293 352 5 0 0 0 - - -;
#X floatatom 332 351 5 0 0 0 - - -;
#X floatatom 370 353 5 0 0 0 - - -;
#X text 344 208 KIKUBE 4;
#X floatatom 31 613 5 0 0 0 - - -;
#X floatatom 70 612 5 0 0 0 - - -;
#X floatatom 108 614 5 0 0 0 - - -;
#X text 82 469 KIKUBE 5;
#X msg -9 492 open 5;
#X msg 253 231 open 4;
#X msg 250 -8 open 2;
#X msg -14 248 close 3;
#X msg 251 14 close 2;
#X msg -9 513 close 5;
#X msg 254 254 close 4;
#X msg -20 12 close;
#X msg 406 47 set valors2;
#X msg 141 282 set valors3;
#X msg 126 49 set valors1;
#X msg 147 547 set valors5;
#X msg 409 286 set valors4;
#X obj 256 72 print;
#X obj 33 78 accDades1;
#X obj 305 80 accDades2;
#X obj 40 315 accDades3;
#X obj 308 319 accDades4;
#X obj 46 580 accDades5;
#X msg -21 -10 open 1;
#X obj 589 6 inlet;
#X text 633 5 loadbang del main;
#X text 407 108 enviar x2 \, y2 \, z2;
#X text 100 314 rebre dades 3er port;
#X text 142 343 enviar x3 \, y3 \, z3;
#X text 410 347 enviar x4 \, y4 \, z4;
#X text 148 608 enviar x5 \, y5 \, z5;
#X text 106 579 rebre dades 5e port;
#X text 368 318 rebre dades 4t port;
#X text 365 79 rebre dades 2n port;
#X obj 297 414 filtre4;
#X obj 31 147 filtre1;
#X obj 302 144 filtre2;
#X obj 50 393 filtre3;
#X obj 597 140 sel 0 1;
#X obj 632 96 inlet;
#X obj 642 106 inlet;
#X obj 652 116 inlet;
#X obj 662 126 inlet;
#X obj 672 136 inlet;
#X obj 607 160 sel 0 1;
#X obj 617 180 sel 0 1;
#X obj 627 200 sel 0 1;
#X obj 637 220 sel 0 1;
#X text 685 181 obrir i tancar kikubes;
#X obj 307 273 bthDades;
#X floatatom 352 250 5 0 0 0 - color4 -;
#X obj 32 32 bthDades;
#X obj 39 269 bthDades;
#X obj 304 34 bthDades;
#X obj 45 534 bthDades;
#X floatatom 77 10 5 0 0 0 - color1 -;
#X floatatom 349 13 5 0 0 0 - color2 -;
#X floatatom 84 248 5 0 0 0 - color3 -;
#X floatatom 90 512 5 0 0 0 - color5 -;
#X floatatom 616 526 5 0 0 0 - - -;
#X text 618 505 accX;
#X floatatom 618 598 5 0 0 0 - - -;
#X msg 736 529 0;
#X msg 855 530 10;
#X obj 616 561 expr if ( $f1 -$f2 < $f3 \, 1 \, ($f1-$f2));
#X obj 676 620 sel 1;
#X obj 786 610 * 1;
#X obj 741 583 bng 15 250 50 0 empty empty empty 17 7 0 10 -262144
-1 -1;
#X msg 832 605 0;
#X floatatom 721 649 5 0 0 0 - - -;
#X floatatom 805 650 5 0 0 0 - - -;
#X text 684 495 coses d'en sergi que no entenc;
#X floatatom 732 108 5 0 0 0 - - color1;
#X floatatom 742 118 5 0 0 0 - - color2;
#X floatatom 752 128 5 0 0 0 - - color3;
#X floatatom 762 138 5 0 0 0 - - color4;
#X floatatom 772 148 5 0 0 0 - - color5;
#X obj 48 646 filtre5;
#X text 668 59 blink colors \, el joc no ha començat;
#X msg 732 86 2;
#X msg 742 96 2;
#X msg 752 106 2;
#X msg 762 116 2;
#X msg 772 126 2;
#X connect 3 0 54 0;
#X connect 4 0 54 1;
#X connect 5 0 54 2;
#X connect 6 0 55 0;
#X connect 7 0 55 1;
#X connect 8 0 55 2;
#X connect 9 0 56 0;
#X connect 10 0 56 1;
#X connect 11 0 56 2;
#X connect 14 0 71 0;
#X connect 15 0 53 0;
#X connect 16 0 53 1;
#X connect 17 0 53 2;
#X connect 19 0 96 0;
#X connect 20 0 96 1;
#X connect 21 0 96 2;
#X connect 23 0 73 0;
#X connect 24 0 68 0;
#X connect 25 0 72 0;
#X connect 26 0 71 0;
#X connect 27 0 72 0;
#X connect 28 0 73 0;
#X connect 29 0 68 0;
#X connect 30 0 70 0;
#X connect 31 0 38 2;
#X connect 32 0 39 2;
#X connect 33 0 37 2;
#X connect 34 0 41 2;
#X connect 35 0 40 2;
#X connect 37 0 3 0;
#X connect 37 1 4 0;
#X connect 37 2 5 0;
#X connect 38 0 6 0;
#X connect 38 1 7 0;
#X connect 38 2 8 0;
#X connect 39 0 9 0;
#X connect 39 1 10 0;
#X connect 39 2 11 0;
#X connect 40 0 15 0;
#X connect 40 1 16 0;
#X connect 40 2 17 0;
#X connect 41 0 19 0;
#X connect 41 1 20 0;
#X connect 41 2 21 0;
#X connect 42 0 70 0;
#X connect 43 0 33 0;
#X connect 43 0 32 0;
#X connect 43 0 31 0;
#X connect 43 0 35 0;
#X connect 43 0 34 0;
#X connect 43 0 53 3;
#X connect 43 0 56 3;
#X connect 43 0 55 3;
#X connect 43 0 96 3;
#X connect 43 0 54 3;
#X connect 57 0 30 0;
#X connect 57 1 42 0;
#X connect 58 0 57 0;
#X connect 58 0 98 0;
#X connect 59 0 63 0;
#X connect 59 0 99 0;
#X connect 60 0 64 0;
#X connect 60 0 100 0;
#X connect 61 0 65 0;
#X connect 61 0 101 0;
#X connect 62 0 66 0;
#X connect 62 0 102 0;
#X connect 63 0 27 0;
#X connect 63 1 25 0;
#X connect 64 0 26 0;
#X connect 64 1 14 0;
#X connect 65 0 29 0;
#X connect 65 1 24 0;
#X connect 66 0 28 0;
#X connect 66 1 23 0;
#X connect 68 0 40 0;
#X connect 68 1 40 1;
#X connect 69 0 68 1;
#X connect 70 0 37 0;
#X connect 70 1 37 1;
#X connect 71 0 39 0;
#X connect 71 1 39 1;
#X connect 72 0 38 0;
#X connect 72 1 38 1;
#X connect 73 0 41 0;
#X connect 73 1 41 1;
#X connect 74 0 70 1;
#X connect 75 0 72 1;
#X connect 76 0 71 1;
#X connect 77 0 73 1;
#X connect 78 0 83 0;
#X connect 80 0 84 0;
#X connect 80 0 85 0;
#X connect 81 0 83 1;
#X connect 82 0 83 2;
#X connect 83 0 80 0;
#X connect 84 0 86 0;
#X connect 84 0 88 0;
#X connect 85 0 89 0;
#X connect 86 0 87 0;
#X connect 87 0 85 1;
#X connect 98 0 91 0;
#X connect 99 0 92 0;
#X connect 100 0 93 0;
#X connect 101 0 94 0;
#X connect 102 0 95 0;
