#N canvas 0 22 653 502 10;
#X obj 178 349 freeverb~;
#X msg 262 54 roomsize \$1;
#X msg 261 115 damping \$1;
#X msg 257 185 wet \$1;
#X msg 256 206 dry \$1;
#X msg 275 275 freeze \$1;
#X msg 275 315 bypass \$1;
#X obj 178 465 dac~;
#X obj 275 258 tgl 15 0 empty empty empty 17 7 0 10 -262144 -1 -1 0
1;
#X obj 275 298 tgl 15 0 empty empty empty 17 7 0 10 -262144 -1 -1 0
1;
#X obj 389 148 hsl 128 15 0 1 0 0 empty empty empty -2 -8 0 10 -4032
-1 -1 1195 1;
#X floatatom 386 167 5 0 0 0 - - -;
#X obj 317 189 expr 1-$f1;
#X obj 387 33 hsl 128 15 0 1 0 0 empty empty empty -2 -8 0 10 -4034
-1 -1 5080 1;
#X obj 389 90 hsl 128 15 0 1 0 0 empty empty empty -2 -8 0 10 -260097
-1 -1 6325 1;
#X floatatom 386 110 5 0 0 0 - - -;
#X floatatom 384 58 5 0 0 0 - - -;
#X text 366 264 Freeze the reverb;
#X text 366 324 the dry signal pass through.;
#X text 365 311 Trun the reverb off and let;
#X text 436 175 Wet signal to dry signal ratio;
#X text 436 191 (0 : all dry \, 1 : all wet);
#X text 437 110 Damping level;
#X text 436 56 Roomize;
#X text 271 460 Pierre Massat \, GuitarExtended \, 2012;
#X obj 88 17 inlet;
#X obj 111 72 inlet;
#X obj 140 133 inlet;
#X obj 178 407 *~;
#X obj 286 384 inlet;
#X obj 13 10 inlet~;
#X connect 0 0 28 0;
#X connect 1 0 0 0;
#X connect 2 0 0 0;
#X connect 3 0 0 0;
#X connect 4 0 0 0;
#X connect 5 0 0 0;
#X connect 6 0 0 0;
#X connect 8 0 5 0;
#X connect 9 0 6 0;
#X connect 10 0 11 0;
#X connect 10 0 3 0;
#X connect 10 0 12 0;
#X connect 12 0 4 0;
#X connect 13 0 1 0;
#X connect 13 0 16 0;
#X connect 14 0 2 0;
#X connect 14 0 15 0;
#X connect 25 0 13 0;
#X connect 26 0 14 0;
#X connect 27 0 10 0;
#X connect 28 0 7 0;
#X connect 28 0 7 1;
#X connect 29 0 28 1;
#X connect 30 0 0 0;
