#N canvas 773 220 583 509 10;
#X obj 301 118 hsl 128 15 0 127 0 0 empty empty empty -2 -8 0 10 -262144
-1 -1 0 1;
#X obj 298 142 osc~ 2;
#X obj 298 170 +~ 1;
#X obj 298 199 *~ 0.5;
#X obj 298 238 *~ 1500;
#X obj 388 218 bang;
#X obj 391 254 -;
#X obj 428 219 hsl 128 15 0 127 0 0 empty empty empty -2 -8 0 10 -262144
-1 -1 0 1;
#X floatatom 416 271 5 0 0 0 - - -;
#X obj 299 268 +~ 200;
#X obj 41 384 vcf~;
#X obj 38 459 dac~;
#X floatatom 132 363 5 0 0 0 - - -;
#X obj 132 230 vsl 15 128 0 20 0 0 empty empty empty 0 -9 0 10 -262144
-1 -1 1581 1;
#X obj 107 41 +~ 1;
#X obj 108 62 *~ 0.5;
#X obj 107 20 osc~ 2;
#X obj 209 97 hsl 128 15 700 6000 0 0 empty empty empty -2 -8 0 10
-262144 -1 -1 12401 1;
#X obj 163 170 hsl 128 15 0 700 0 0 empty empty empty -2 -8 0 10 -262144
-1 -1 0 1;
#X floatatom 160 189 6 0 0 0 - - -;
#X floatatom 161 131 6 0 0 0 - - -;
#X obj 161 112 -;
#X obj 161 90 bang;
#X obj 61 196 +~ 200;
#X obj 60 114 *~ 1500;
#X text 158 37 <-- LFO (Low-Frequency Oscillator;
#X text 342 95 <-- Maximum of the freq. range;
#X text 296 167 <-- Minimum of the freq. range;
#X text 169 320 <-- "Q";
#X text 80 400 <-- Voltage-Controlled band-pass filter;
#X obj 167 -9 hsl 128 15 0.5 30 0 0 empty empty empty -2 -8 0 10 -262144
-1 -1 1444 1;
#X obj 204 221 loadbang;
#X msg 202 246 5.3;
#X obj 10 -12 inlet~;
#X obj 101 -13 inlet;
#X obj 314 -11 inlet;
#X obj 363 -14 inlet;
#X obj 60 -11 inlet;
#X obj 10 25 *~;
#X obj 61 339 *~;
#X obj 39 422 *~;
#X obj 114 433 hsl 128 15 1 127 0 0 empty empty empty -2 -8 0 10 -262144
-1 -1 150 1;
#X connect 0 0 1 0;
#X connect 1 0 2 0;
#X connect 2 0 3 0;
#X connect 3 0 4 0;
#X connect 4 0 9 0;
#X connect 6 0 4 1;
#X connect 6 0 8 0;
#X connect 7 0 6 1;
#X connect 10 0 40 0;
#X connect 13 0 12 0;
#X connect 13 0 10 2;
#X connect 14 0 15 0;
#X connect 15 0 24 0;
#X connect 16 0 14 0;
#X connect 17 0 21 0;
#X connect 18 0 19 0;
#X connect 18 0 21 1;
#X connect 18 0 22 0;
#X connect 18 0 23 1;
#X connect 21 0 20 0;
#X connect 21 0 24 1;
#X connect 22 0 21 0;
#X connect 23 0 39 0;
#X connect 24 0 23 0;
#X connect 30 0 16 0;
#X connect 31 0 32 0;
#X connect 32 0 13 0;
#X connect 33 0 38 0;
#X connect 34 0 13 0;
#X connect 34 0 41 0;
#X connect 35 0 30 0;
#X connect 36 0 17 0;
#X connect 37 0 38 1;
#X connect 37 0 39 1;
#X connect 38 0 10 0;
#X connect 39 0 10 1;
#X connect 40 0 11 0;
#X connect 40 0 11 1;
#X connect 41 0 40 1;
